# xmcd CD database file
#
# Track frame offsets:
#	150
#	17173
#	29529
#	47935
#	67783
#	88383
#	101386
#	116168
#	140770
#
# Disc length: 2144 seconds
#
# Revision: 0
# Processed by: cddbd v1.5.2PL0 Copyright (c) Steve Scherf et al.
# Submitted via: CDex 1.70beta2
#
DISCID=7e085e09
DTITLE=PERPETRATOR - THERMONUCLEAR EPIPHANY
DYEAR=2014
DGENRE=Thrash Metal
TTITLE0=PERPETRATOR - MEGATON THERION
TTITLE1=PERPETRATOR - PYRES IN THE NIGHT
TTITLE2=PERPETRATOR - DOOMED TO DEATH
TTITLE3=PERPETRATOR - NOTHING LEFT TO KILL
TTITLE4=PERPETRATOR - PROUD PARIAHS
TTITLE5=PERPETRATOR - PURGATORY WHOREHOUSE
TTITLE6=PERPETRATOR - DEATH TO ALL
TTITLE7=PERPETRATOR - SHADOW OF A MAN
TTITLE8=PERPETRATOR - FIRE UNLEASHED
EXTD=YEAR: 2014
EXTT0=
EXTT1=
EXTT2=
EXTT3=
EXTT4=
EXTT5=
EXTT6=
EXTT7=
EXTT8=
PLAYORDER=
